<svg xmlns="http://www.w3.org/2000/svg" viewBox="0 0 720 540"><rect width="720" height="540" fill="#fff6ef"/><ellipse cx="360" cy="420" rx="250" ry="44" fill="#e7c6a5" opacity=".5"/><path d="M148 296c0-83 76-151 212-151s212 68 212 151c0 78-64 132-212 132s-212-54-212-132Z" fill="#f2c9a9"/><path d="M198 296c0-52 58-95 162-95s162 43 162 95c0 49-48 83-162 83s-162-34-162-83Z" fill="#fffdfb"/><path d="M249 296c0-28 40-51 111-51s111 23 111 51-32 46-111 46-111-19-111-46Z" fill="#d96b75"/><g fill="#9e1b32"><circle cx="270" cy="154" r="20"/><circle cx="363" cy="130" r="18"/><circle cx="455" cy="158" r="21"/></g><g fill="#5e7d61"><path d="M282 132c16-16 34-12 39 7-19 1-29-1-39-7Z"/><path d="M376 111c14-13 30-10 36 6-18 2-26 0-36-6Z"/><path d="M469 136c15-12 31-9 37 8-17 1-27-1-37-8Z"/></g></svg>
