<svg xmlns="http://www.w3.org/2000/svg" viewBox="0 0 720 540"><rect width="720" height="540" fill="#fbf2ec"/><ellipse cx="360" cy="420" rx="250" ry="44" fill="#6b3f33" opacity=".18"/><path d="M148 296c0-83 76-151 212-151s212 68 212 151c0 78-64 132-212 132s-212-54-212-132Z" fill="#7a4538"/><path d="M198 296c0-52 58-95 162-95s162 43 162 95c0 49-48 83-162 83s-162-34-162-83Z" fill="#fff1dc"/><path d="M249 296c0-28 40-51 111-51s111 23 111 51-32 46-111 46-111-19-111-46Z" fill="#4d2b25"/><g fill="#c49a5a"><circle cx="278" cy="147" r="18"/><circle cx="365" cy="126" r="16"/><circle cx="452" cy="150" r="19"/></g><path d="M221 190c88-43 206-44 290 3" fill="none" stroke="#fff1dc" stroke-width="20" stroke-linecap="round"/></svg>
