<svg xmlns="http://www.w3.org/2000/svg" viewBox="0 0 720 540"><rect width="720" height="540" fill="#fff4eb"/><ellipse cx="360" cy="420" rx="250" ry="44" fill="#c49a5a" opacity=".35"/><path d="M148 296c0-83 76-151 212-151s212 68 212 151c0 78-64 132-212 132s-212-54-212-132Z" fill="#d6a66f"/><path d="M198 296c0-52 58-95 162-95s162 43 162 95c0 49-48 83-162 83s-162-34-162-83Z" fill="#fff1dc"/><path d="M249 296c0-28 40-51 111-51s111 23 111 51-32 46-111 46-111-19-111-46Z" fill="#b97842"/><g fill="#8b5a35"><ellipse cx="286" cy="145" rx="23" ry="16"/><ellipse cx="360" cy="125" rx="22" ry="15"/><ellipse cx="438" cy="148" rx="23" ry="16"/></g><path d="M220 184c90-40 193-41 282 2" fill="none" stroke="#fffdfb" stroke-width="19" stroke-linecap="round"/></svg>
