<svg xmlns="http://www.w3.org/2000/svg" viewBox="0 0 720 540"><rect width="720" height="540" fill="#fff9e8"/><ellipse cx="360" cy="420" rx="250" ry="44" fill="#e7c6a5" opacity=".42"/><path d="M148 296c0-83 76-151 212-151s212 68 212 151c0 78-64 132-212 132s-212-54-212-132Z" fill="#f3d58f"/><path d="M198 296c0-52 58-95 162-95s162 43 162 95c0 49-48 83-162 83s-162-34-162-83Z" fill="#fffdfb"/><path d="M249 296c0-28 40-51 111-51s111 23 111 51-32 46-111 46-111-19-111-46Z" fill="#f5c44d"/><g fill="#fffdfb"><path d="M259 161c24-55 68-55 91 0"/><path d="M371 147c22-46 60-46 80 0"/></g><g fill="#d6a034"><circle cx="298" cy="148" r="8"/><circle cx="417" cy="136" r="8"/></g></svg>
