<svg xmlns="http://www.w3.org/2000/svg" viewBox="0 0 720 540"><rect width="720" height="540" fill="#fff8ec"/><ellipse cx="360" cy="420" rx="250" ry="44" fill="#e7c6a5" opacity=".42"/><path d="M148 296c0-83 76-151 212-151s212 68 212 151c0 78-64 132-212 132s-212-54-212-132Z" fill="#f4b95f"/><path d="M198 296c0-52 58-95 162-95s162 43 162 95c0 49-48 83-162 83s-162-34-162-83Z" fill="#fffdfb"/><path d="M249 296c0-28 40-51 111-51s111 23 111 51-32 46-111 46-111-19-111-46Z" fill="#f1a526"/><g fill="#f6c744"><ellipse cx="290" cy="146" rx="28" ry="18"/><ellipse cx="370" cy="124" rx="26" ry="17"/><ellipse cx="450" cy="148" rx="28" ry="18"/></g><g fill="#5e7d61"><path d="M304 125c20-12 40-7 46 14-22 1-35-4-46-14Z"/><path d="M465 127c18-11 36-7 43 11-21 2-32-1-43-11Z"/></g></svg>
