<svg xmlns="http://www.w3.org/2000/svg" viewBox="0 0 720 540"><rect width="720" height="540" fill="#f5f1e8"/><ellipse cx="360" cy="420" rx="250" ry="44" fill="#5e7d61" opacity=".24"/><path d="M148 296c0-83 76-151 212-151s212 68 212 151c0 78-64 132-212 132s-212-54-212-132Z" fill="#bfd0a5"/><path d="M198 296c0-52 58-95 162-95s162 43 162 95c0 49-48 83-162 83s-162-34-162-83Z" fill="#fffdfb"/><path d="M249 296c0-28 40-51 111-51s111 23 111 51-32 46-111 46-111-19-111-46Z" fill="#d96b75"/><g fill="#5e7d61"><ellipse cx="285" cy="148" rx="24" ry="13"/><ellipse cx="364" cy="126" rx="22" ry="12"/><ellipse cx="446" cy="150" rx="24" ry="13"/></g><g fill="#9e1b32"><circle cx="313" cy="139" r="11"/><circle cx="414" cy="140" r="11"/></g></svg>
